<svg version="1.1" xmlns="http://www.w3.org/2000/svg" xmlns:xlink="http://www.w3.org/1999/xlink" x="0px" y="0px"
	 viewBox="0 0 93.1 160.1" enable-background="new 0 0 93.1 160.1" xml:space="preserve">
<g id="Layer_1">
	<path id="ring-inner" d="M83.6-172.4c-2.3,0-57.4-0.1-57.4-11.7s55-11.7,57.4-11.7s57.4,0.1,57.4,11.7S85.9-172.4,83.6-172.4z
		 M30.2-184.1c1,2.3,17.5,7.7,53.4,7.7s52.3-5.4,53.4-7.7c-1-2.3-17.5-7.7-53.4-7.7S31.3-186.4,30.2-184.1z"/>
	<path id="ring-middle" d="M115.4-184.1c0,0,0,0.1-0.1,0.4c-0.1,0.2-0.3,0.5-0.7,0.8c-0.8,0.6-2.1,1.1-3.9,1.6
		c-1.7,0.5-3.9,0.9-6.4,1.3c-2.5,0.4-5.3,0.7-8.4,1.1c-6.2,0.6-13.4,1-21.3,0.9c-3.9-0.1-7.9-0.2-12-0.7c-2.1-0.2-4.1-0.6-6.2-1.1
		c-1-0.3-2.1-0.5-3.2-1c-0.5-0.2-1.1-0.5-1.7-0.9c-0.3-0.2-0.6-0.4-0.9-0.8c-0.3-0.3-0.6-0.9-0.6-1.6c0-0.5,0-0.2,0-0.3l0,0l0-0.1
		c0,0,0,0,0-0.1c0-0.1,0.1-0.2,0.1-0.3c0.1-0.2,0.2-0.4,0.2-0.5l0.2-0.3c0.3-0.4,0.6-0.6,0.9-0.8c0.6-0.4,1.1-0.6,1.7-0.9
		c1.1-0.4,2.1-0.7,3.2-1c2.1-0.5,4.2-0.8,6.2-1.1c4.1-0.5,8.1-0.7,12-0.7c7.8-0.1,15.1,0.4,21.3,1c3.1,0.3,5.9,0.7,8.4,1.1
		c2.5,0.4,4.7,0.8,6.4,1.3c1.7,0.5,3.1,1,3.9,1.6c0.4,0.3,0.6,0.6,0.7,0.8C115.4-184.2,115.4-184.1,115.4-184.1z M115.4-184.1
		c0,0,0-0.1-0.1-0.4c-0.1-0.2-0.3-0.5-0.7-0.8c-0.8-0.6-2.1-1.1-3.9-1.5c-1.8-0.5-3.9-0.9-6.4-1.1c-2.5-0.3-5.3-0.5-8.4-0.7
		c-6.2-0.3-13.4-0.1-21.1,0.5c-3.8,0.3-7.8,0.7-11.8,1.3c-2,0.3-4,0.7-5.9,1.2c-1,0.2-1.9,0.5-2.7,0.9c-0.4,0.2-0.8,0.4-1.1,0.6
		c-0.1,0.1-0.2,0.2-0.3,0.2c0,0,0,0,0,0c0,0,0.1-0.1,0.1-0.2c0,0,0-0.1,0-0.1c0,0,0,0,0,0.1l0,0.1l0,0c0-0.1,0,0.3,0-0.2
		c0-0.2-0.1-0.3,0-0.2c0,0,0.1,0.1,0.3,0.2c0.3,0.2,0.7,0.4,1.1,0.6c0.8,0.4,1.8,0.6,2.7,0.9c1.9,0.5,3.9,0.8,5.9,1.2
		c4,0.6,7.9,1,11.8,1.3c7.7,0.6,14.9,0.8,21.1,0.5c3.1-0.1,5.9-0.4,8.4-0.7c2.5-0.3,4.7-0.7,6.4-1.1c1.7-0.5,3.1-1,3.9-1.5
		c0.4-0.3,0.7-0.6,0.7-0.8C115.4-183.9,115.4-184.1,115.4-184.1z"/>
	<path id="ring-outer" d="M184.6-184.1c0,0,0.2,0.1,0.2,0.3c0,0.2,0,0.6-0.2,0.9c-0.4,0.8-1.2,1.7-2.5,2.5
		c-2.6,1.7-6.9,3.2-12.4,4.7c-5.6,1.4-12.4,2.9-20.3,4.1c-7.9,1.2-16.8,2.4-26.6,3.2c-9.8,0.8-20.4,1.3-31.7,1.3
		c-2.8,0-5.7,0-8.6-0.1c-2.9-0.1-5.8-0.1-8.8-0.3c-5.9-0.2-11.9-0.5-18.1-0.9c-12.2-0.9-24.9-1.9-37.7-3.5c-3.2-0.4-6.4-0.9-9.6-1.4
		c-3.2-0.5-6.4-1.1-9.6-1.8c-3.2-0.7-6.4-1.5-9.5-2.6c-1.6-0.6-3.1-1.2-4.6-2.1c-0.7-0.5-1.5-1-2.2-1.7c-0.3-0.3-0.6-0.8-0.9-1.2
		c-0.2-0.5-0.4-1.1-0.4-1.7l0-0.4c0-0.1,0-0.3,0.1-0.4c0.1-0.4,0.2-0.6,0.3-0.8c0.2-0.5,0.5-0.9,0.9-1.3c0.7-0.7,1.4-1.3,2.1-1.8
		c1.5-1,3-1.7,4.6-2.3c3.1-1.2,6.3-2.2,9.5-3c6.4-1.6,12.8-2.7,19.2-3.6c12.8-1.8,25.5-2.8,37.8-3.4c6.1-0.3,12.2-0.5,18.1-0.6
		c5.9-0.1,11.7-0.1,17.3,0c11.3,0.2,21.9,0.7,31.7,1.6c9.8,0.9,18.7,2.1,26.6,3.3c7.9,1.2,14.7,2.7,20.3,4.2c5.5,1.5,9.8,3,12.4,4.7
		c1.3,0.8,2.2,1.8,2.5,2.5c0.2,0.4,0.1,0.7,0.1,0.9C184.8-184.3,184.6-184.1,184.6-184.1L184.6-184.1z M184.6-184.1
		c0,0,0-0.4-0.3-1.1c-0.3-0.7-1.1-1.5-2.4-2.3c-2.6-1.6-6.8-3.1-12.4-4.4c-5.5-1.3-12.4-2.3-20.3-3.1c-7.9-0.8-16.9-1.3-26.6-1.7
		c-9.8-0.4-20.3-0.7-31.5-0.8c-5.6,0-11.4,0-17.2,0.1c-5.9,0.1-11.9,0.3-18,0.5c-12.2,0.4-24.8,1.3-37.5,2.8c-6.3,0.7-12.7,1.7-19,3
		c-3.1,0.7-6.3,1.4-9.3,2.5c-1.5,0.5-2.9,1.1-4.2,1.9c-1.3,0.7-2.5,1.8-2.4,2.7c0,0.4,0.2,1,0.7,1.5c0.4,0.5,1,1,1.7,1.4
		c1.3,0.8,2.7,1.5,4.2,2.1c3,1.2,6.1,2.1,9.2,2.9c6.3,1.5,12.7,2.6,19,3.4c12.7,1.7,25.4,2.4,37.6,2.6c6.1,0.1,12.1,0.2,18,0.1
		c2.9,0,5.9-0.1,8.7-0.1c2.9,0,5.7-0.1,8.5-0.1c11.2-0.2,21.8-0.6,31.5-1c9.8-0.4,18.7-1,26.6-1.8c7.9-0.8,14.8-1.8,20.3-3.1
		c5.6-1.3,9.8-2.8,12.4-4.4c1.3-0.8,2.1-1.7,2.4-2.3c0.2-0.3,0.2-0.6,0.3-0.8C184.6-184.1,184.6-184.2,184.6-184.1L184.6-184.1z"/>
	<path id="bunny" d="M110.8-283.1c9.3-11.6,29.5-41,13-57.6c-17.8-17.8-19.5,37.6-19.6,55c-5.2-1.5-9.9-3.5-20.6-3.5
		s-15.5,2-20.6,3.5c-0.1-17.4-1.9-72.7-19.6-55c-16.5,16.5,3.7,45.9,13,57.6c-10.4,5.2-11.1,12.6-11.1,12.6s-5.9,18.5,31.6,76.2
		c2.1,3.3,4.3,6.7,6.7,10.2c0,0,0-0.1,0.1-0.1c0,0,0,0.1,0.1,0.1c2.4-3.5,4.6-6.9,6.7-10.2c37.5-57.7,31.6-76.2,31.6-76.2
		S121.1-277.9,110.8-283.1z M73.2-266.1c-1.4,0.3-3.2-1.7-3.8-4.5c-0.7-2.8-0.1-5.4,1.4-5.8c1.4-0.3,3.2,1.7,3.8,4.5
		C75.3-269,74.7-266.4,73.2-266.1z M83.8-261.7c0,0-4.6-1-4.4-2.5c0.2-1.5,4.4-1.4,4.4-1.4s4.2-0.1,4.4,1.4
		C88.4-262.7,83.8-261.7,83.8-261.7z M97.6-270.6c-0.7,2.8-2.4,4.9-3.8,4.5c-1.4-0.3-2.1-2.9-1.4-5.8c0.7-2.8,2.4-4.9,3.8-4.5
		C97.7-276,98.3-273.4,97.6-270.6z"/>
	<path id="bunny-belly" fill="#FFFFFF" d="M83.6-193.7c0,0-43-58,0-58S83.6-193.7,83.6-193.7z"/>
</g>
<g id="Layer_2">
	<path id="bunny_1_" fill="#FF0051" d="M73.8,61c9.3-11.6,29.5-41,13-57.6C69-14.3,67.3,41.1,67.1,58.5C62,57,57.3,55,46.5,55
		s-15.5,2-20.6,3.5c-0.1-17.4-1.9-72.7-19.6-55C-10.2,20,10,49.4,19.3,61C8.9,66.3,8.2,73.7,8.2,73.7s-5.9,18.5,31.6,76.2
		c2.1,3.3,4.3,6.7,6.7,10.2c0,0,0-0.1,0.1-0.1c0,0,0,0.1,0.1,0.1c2.4-3.5,4.6-6.9,6.7-10.2c37.5-57.7,31.6-76.2,31.6-76.2
		S84.1,66.3,73.8,61z M36.2,78.1c-1.4,0.3-3.2-1.7-3.8-4.5c-0.7-2.8-0.1-5.4,1.4-5.8c1.4-0.3,3.2,1.7,3.8,4.5
		C38.3,75.1,37.7,77.7,36.2,78.1z M46.8,82.4c0,0-4.6-1-4.4-2.5c0.2-1.5,4.4-1.4,4.4-1.4s4.2-0.1,4.4,1.4
		C51.4,81.4,46.8,82.4,46.8,82.4z M60.6,73.6c-0.7,2.8-2.4,4.9-3.8,4.5c-1.4-0.3-2.1-2.9-1.4-5.8c0.7-2.8,2.4-4.9,3.8-4.5
		C60.7,68.1,61.3,70.7,60.6,73.6z"/>
	<path id="bunny-belly_1_" fill="#FFFFFF" d="M46.6,150.5c0,0-43-58,0-58S46.6,150.5,46.6,150.5z"/>
</g>
</svg>
